<?xml version="1.0" encoding="UTF-8"?>
<svg xmlns="http://www.w3.org/2000/svg" viewBox="0 0 240 110" role="img" aria-label="Projet 403 — Crazy Dust 2027">
  <!-- Particules de poussière (sablage raid) -->
  <g fill="#d97706" opacity="0.35">
    <circle cx="6" cy="92" r="1.4"/>
    <circle cx="18" cy="100" r="1"/>
    <circle cx="30" cy="96" r="1.3"/>
    <circle cx="48" cy="101" r="0.9"/>
    <circle cx="66" cy="98" r="1.1"/>
    <circle cx="84" cy="102" r="1.2"/>
    <circle cx="102" cy="99" r="0.9"/>
    <circle cx="120" cy="103" r="1.3"/>
    <circle cx="138" cy="100" r="1"/>
    <circle cx="156" cy="102" r="1.2"/>
    <circle cx="174" cy="98" r="1.1"/>
    <circle cx="192" cy="103" r="1"/>
    <circle cx="210" cy="100" r="1.3"/>
    <circle cx="225" cy="96" r="0.9"/>
  </g>

  <!-- Lignes de vitesse derrière la voiture -->
  <g stroke="#d97706" stroke-linecap="round" opacity="0.55">
    <line x1="2" y1="40" x2="22" y2="40" stroke-width="2"/>
    <line x1="0" y1="55" x2="18" y2="55" stroke-width="2"/>
    <line x1="3" y1="70" x2="20" y2="70" stroke-width="2"/>
  </g>

  <!-- Ombre au sol -->
  <ellipse cx="125" cy="92" rx="100" ry="3.5" fill="#000" opacity="0.35"/>

  <!-- Carrosserie 403 break (silhouette) -->
  <g fill="#ff6f3c" stroke="#1a1a1a" stroke-width="2" stroke-linejoin="round">
    <path d="
      M 32 85
      L 32 70
      Q 32 60 38 56
      L 70 48
      Q 78 42 90 38
      L 165 36
      Q 180 36 188 42
      L 210 50
      Q 220 53 222 60
      L 222 78
      Q 222 85 215 85
      L 32 85 Z
    "/>
  </g>

  <!-- Vitres -->
  <g fill="#1e293b" stroke="#1a1a1a" stroke-width="1.2" stroke-linejoin="round">
    <!-- Pare-brise -->
    <path d="M 78 50 L 92 42 L 118 41 L 118 50 Z"/>
    <!-- Vitre passagers -->
    <path d="M 122 41 L 156 41 L 156 50 L 122 50 Z"/>
    <!-- Vitre arrière break (allongée caractéristique du 403 break) -->
    <path d="M 160 41 L 200 42 L 206 50 L 160 50 Z"/>
  </g>

  <!-- Montants -->
  <g stroke="#1a1a1a" stroke-width="2">
    <line x1="120" y1="41" x2="120" y2="50"/>
    <line x1="158" y1="41" x2="158" y2="50"/>
  </g>

  <!-- Phare avant -->
  <circle cx="38" cy="65" r="3.5" fill="#fde68a" stroke="#1a1a1a" stroke-width="1.2"/>

  <!-- Calandre -->
  <g stroke="#1a1a1a" stroke-width="1">
    <line x1="34" y1="72" x2="44" y2="72"/>
    <line x1="34" y1="76" x2="44" y2="76"/>
    <line x1="34" y1="80" x2="44" y2="80"/>
  </g>

  <!-- Poignée porte arrière -->
  <line x1="180" y1="68" x2="188" y2="68" stroke="#1a1a1a" stroke-width="1.5" stroke-linecap="round"/>

  <!-- Autocollant rallye "403" (cercle blanc bordé) -->
  <g>
    <circle cx="140" cy="68" r="12.5" fill="#fafafa" stroke="#1a1a1a" stroke-width="1.8"/>
    <text x="140" y="73" text-anchor="middle" font-family="'Arial Black', 'Helvetica', sans-serif" font-weight="900" font-size="13" fill="#1a1a1a">403</text>
  </g>

  <!-- Roue avant -->
  <g>
    <circle cx="60" cy="85" r="11" fill="#1a1a1a"/>
    <circle cx="60" cy="85" r="5.5" fill="#737373"/>
    <circle cx="60" cy="85" r="1.8" fill="#1a1a1a"/>
  </g>

  <!-- Roue arrière -->
  <g>
    <circle cx="195" cy="85" r="11" fill="#1a1a1a"/>
    <circle cx="195" cy="85" r="5.5" fill="#737373"/>
    <circle cx="195" cy="85" r="1.8" fill="#1a1a1a"/>
  </g>

  <!-- Soulèvement de poussière sous les roues -->
  <g fill="#d97706" opacity="0.5">
    <circle cx="50" cy="98" r="2"/>
    <circle cx="54" cy="100" r="1.5"/>
    <circle cx="185" cy="98" r="2"/>
    <circle cx="188" cy="100" r="1.5"/>
  </g>
</svg>
